<?xml version="1.0" encoding="UTF-8" standalone="no"?>
<svg
   xmlns:dc="http://purl.org/dc/elements/1.1/"
   xmlns:cc="http://creativecommons.org/ns#"
   xmlns:rdf="http://www.w3.org/1999/02/22-rdf-syntax-ns#"
   xmlns:svg="http://www.w3.org/2000/svg"
   xmlns="http://www.w3.org/2000/svg"
   xmlns:sodipodi="http://sodipodi.sourceforge.net/DTD/sodipodi-0.dtd"
   xmlns:inkscape="http://www.inkscape.org/namespaces/inkscape"
   width="1265pt"
   height="791pt"
   viewBox="0 0 1265 791"
   version="1.1"
   id="svg3039"
   inkscape:version="0.48.5 r10040"
   sodipodi:docname="sanic.svg">
  <metadata
     id="metadata3091">
    <rdf:RDF>
      <cc:Work
         rdf:about="">
        <dc:format>image/svg+xml</dc:format>
        <dc:type
           rdf:resource="http://purl.org/dc/dcmitype/StillImage" />
      </cc:Work>
    </rdf:RDF>
  </metadata>
  <defs
     id="defs3089" />
  <sodipodi:namedview
     pagecolor="#ffffff"
     bordercolor="#666666"
     borderopacity="1"
     objecttolerance="10"
     gridtolerance="10"
     guidetolerance="10"
     inkscape:pageopacity="0"
     inkscape:pageshadow="2"
     inkscape:window-width="1920"
     inkscape:window-height="1057"
     id="namedview3087"
     showgrid="false"
     inkscape:zoom="4.9774596"
     inkscape:cx="1534.9562"
     inkscape:cy="788.04671"
     inkscape:window-x="1912"
     inkscape:window-y="112"
     inkscape:window-maximized="1"
     inkscape:current-layer="svg3039" />
  <path
     d=" M 0.00 0.00 L 1265.00 0.00 L 1265.00 791.00 L 907.47 791.00 C 905.01 779.88 905.12 768.41 903.40 757.19 C 901.26 736.37 897.41 715.69 891.28 695.67 C 888.72 684.12 884.98 672.85 882.99 661.17 C 879.57 642.24 873.63 623.92 868.25 605.49 C 865.34 595.07 861.03 585.11 858.19 574.68 C 855.64 566.04 852.19 557.69 849.75 549.02 C 847.58 541.18 843.15 534.24 840.62 526.54 C 837.51 517.01 833.62 507.73 829.25 498.71 C 825.66 492.11 823.06 485.05 819.55 478.42 C 817.40 474.28 815.05 470.22 813.52 465.81 C 809.90 455.02 804.80 444.78 798.92 435.05 C 794.27 427.45 790.24 419.37 784.37 412.59 C 779.30 406.74 776.36 399.45 771.64 393.35 C 768.58 389.41 765.19 385.72 761.71 382.15 C 752.32 373.57 743.56 364.35 734.54 355.40 C 727.79 347.54 720.08 340.60 712.43 333.65 C 707.44 330.01 703.06 325.67 698.34 321.72 C 689.31 315.12 679.49 309.66 669.58 304.53 C 663.94 301.34 658.36 297.62 651.86 296.50 C 645.42 295.40 639.09 297.61 632.67 297.79 C 632.57 287.49 633.26 277.13 631.45 266.94 C 630.35 254.95 626.81 243.38 622.65 232.15 C 616.76 219.01 606.81 208.20 595.89 199.03 C 591.72 196.17 586.93 194.37 582.23 192.59 C 576.80 190.45 570.97 192.08 565.42 192.68 C 559.53 193.36 553.08 195.33 549.72 200.61 C 546.78 205.39 543.19 209.76 540.67 214.79 C 535.18 226.20 532.08 238.58 529.18 250.85 C 526.78 259.86 527.39 269.27 527.69 278.49 C 529.09 290.82 533.18 302.63 536.23 314.62 C 530.42 317.32 524.93 320.77 520.52 325.46 C 515.54 330.90 508.99 334.57 504.01 340.01 C 493.07 351.76 479.83 361.13 469.26 373.26 C 466.06 377.10 463.42 381.37 460.17 385.17 C 455.88 390.24 450.24 394.05 446.47 399.57 C 441.21 407.18 436.66 415.26 432.38 423.45 C 428.39 430.72 422.03 436.57 419.33 444.56 C 412.81 459.89 404.90 474.58 397.29 489.39 C 393.89 496.03 391.78 503.21 388.91 510.08 C 383.99 521.92 380.16 534.24 377.95 546.89 C 372.52 570.99 371.83 595.79 368.96 620.26 C 368.02 627.80 367.47 635.37 367.37 642.96 C 366.05 664.92 366.31 686.93 366.67 708.91 C 367.73 726.92 368.07 744.98 369.84 762.95 C 370.78 772.29 371.78 781.63 372.37 791.00 L 0.00 791.00 L 0.00 0.00 Z"
     id="path3041"
     fill="#4c76b2"
     style="stroke:#4c76b2;stroke-opacity:0" />
  <path
     fill="#000000"
     d=" M 917.92 63.02 C 931.28 62.28 944.61 60.71 958.02 61.19 C 965.45 60.71 972.60 63.19 979.98 63.54 C 986.14 63.93 992.01 66.00 997.72 68.18 C 1007.98 71.10 1018.89 71.78 1028.73 76.14 C 1034.88 78.44 1041.23 80.14 1047.39 82.42 C 1058.48 88.72 1069.28 95.72 1078.80 104.27 C 1081.88 107.50 1084.79 110.88 1087.84 114.14 C 1091.11 118.24 1093.87 122.73 1097.30 126.72 C 1101.06 131.89 1106.28 135.75 1110.12 140.85 C 1113.29 145.05 1116.94 148.92 1119.49 153.55 C 1123.05 160.02 1127.68 165.96 1130.11 173.01 C 1132.91 180.06 1133.05 187.75 1134.40 195.14 C 1136.71 207.94 1137.90 221.00 1136.89 234.00 C 1136.30 241.97 1132.98 249.35 1131.29 257.10 C 1128.50 265.57 1125.23 273.93 1120.96 281.78 C 1118.08 287.13 1115.64 292.70 1113.61 298.42 C 1108.32 310.38 1098.65 319.50 1090.66 329.62 C 1087.37 334.02 1082.91 337.28 1078.78 340.82 C 1070.12 348.54 1059.72 354.18 1048.70 357.70 C 1036.67 362.46 1023.74 364.37 1011.82 369.38 C 1004.48 372.21 996.90 374.31 989.30 376.25 C 981.42 378.23 974.28 382.81 966.05 383.28 C 954.40 383.94 942.68 382.67 931.08 384.17 C 917.73 384.36 904.38 384.18 891.04 384.22 C 886.61 384.09 882.45 386.11 878.01 385.82 C 873.66 385.61 869.37 386.47 865.04 386.49 C 858.39 385.26 851.44 384.94 845.31 381.84 C 834.36 378.19 823.40 374.60 812.61 370.50 C 807.08 368.33 802.02 365.15 797.02 361.99 C 792.14 358.99 788.71 354.28 784.33 350.68 C 778.69 345.98 773.83 340.48 769.01 334.98 C 762.10 328.18 756.45 320.19 749.23 313.70 C 743.79 308.39 740.08 301.71 737.11 294.79 C 736.64 294.70 735.70 294.53 735.23 294.45 C 743.48 315.95 754.26 336.53 767.65 355.30 C 772.59 361.99 777.95 368.36 783.12 374.87 C 788.79 380.22 794.15 385.89 799.79 391.28 C 806.11 396.60 812.95 401.33 818.62 407.40 C 823.94 413.39 829.38 419.32 835.56 424.44 C 839.74 428.05 845.03 430.12 849.01 433.99 C 852.98 437.34 856.01 441.75 860.50 444.49 C 864.94 447.22 869.64 449.50 874.47 451.48 C 880.73 454.01 886.40 457.97 893.06 459.48 C 902.20 461.58 910.54 466.09 919.59 468.49 C 928.56 470.67 937.90 470.81 947.07 470.12 C 958.72 468.50 969.69 463.69 979.89 457.99 C 990.91 451.95 1002.43 446.86 1013.05 440.11 C 1018.67 437.62 1023.44 433.61 1029.06 431.18 C 1019.03 441.37 1006.04 448.00 993.39 454.36 C 982.66 459.63 972.54 466.26 961.05 469.85 C 949.46 474.24 936.72 474.29 924.60 472.60 C 913.47 471.16 903.69 465.15 892.87 462.57 C 887.25 461.36 882.19 458.58 877.11 456.00 C 869.71 452.60 861.82 449.79 855.47 444.53 C 851.04 440.32 847.09 435.48 841.76 432.34 C 833.23 427.51 826.26 420.48 819.76 413.25 C 813.67 405.61 805.53 400.06 798.10 393.84 C 792.30 388.30 786.80 382.44 780.92 376.97 C 774.71 369.22 768.23 361.67 762.63 353.46 C 753.69 340.52 746.07 326.70 739.41 312.47 C 736.76 307.65 735.68 302.21 733.66 297.14 C 730.79 290.82 727.76 284.57 724.80 278.30 C 722.01 270.58 717.45 263.65 715.16 255.73 C 712.39 248.77 712.49 241.21 710.89 233.99 C 709.92 228.35 709.75 222.62 708.83 216.98 C 707.18 208.49 706.40 199.54 708.15 191.03 C 712.27 182.78 714.33 173.69 718.29 165.36 C 722.26 158.68 725.46 151.47 730.55 145.53 C 735.68 139.66 739.68 132.86 745.36 127.48 C 750.54 121.30 756.74 116.16 762.40 110.46 C 767.59 105.89 773.69 102.48 778.85 97.84 C 784.82 93.87 791.62 91.31 797.99 88.01 C 810.69 81.37 824.60 77.65 838.17 73.26 C 847.87 70.09 857.71 67.06 867.93 66.12 C 877.64 65.21 887.40 64.64 897.14 63.99 C 904.03 62.97 911.02 64.02 917.92 63.02 Z"
     id="path3043" />
  <path
     fill="#ffffff"
     d=" M 913.00 66.61 C 930.21 65.15 947.54 63.66 964.85 64.52 C 970.91 65.36 976.88 66.92 983.05 66.82 C 988.32 68.08 993.45 69.79 998.52 71.71 C 1003.75 72.61 1008.86 74.14 1014.13 74.93 C 1022.80 76.43 1030.64 80.59 1039.10 82.86 C 1040.30 83.31 1041.52 83.71 1042.75 84.14 C 1047.29 84.91 1050.58 88.29 1054.54 90.31 C 1061.84 94.51 1068.50 99.68 1075.03 104.98 C 1079.00 108.62 1082.37 112.85 1086.03 116.80 C 1090.32 122.79 1094.69 128.76 1099.67 134.22 C 1107.17 141.57 1114.01 149.74 1119.08 158.98 C 1122.49 164.45 1126.20 169.90 1127.86 176.22 L 1128.26 176.77 C 1130.27 184.35 1130.32 192.29 1132.17 199.90 C 1134.00 212.89 1135.22 226.09 1133.20 239.14 C 1132.39 241.72 1131.62 244.31 1130.84 246.90 C 1130.68 247.46 1130.35 248.60 1130.19 249.17 C 1127.42 260.94 1122.70 272.19 1116.98 282.82 C 1114.39 287.65 1112.37 292.75 1110.52 297.90 C 1105.42 308.71 1096.72 317.12 1089.36 326.36 C 1086.04 330.71 1081.92 334.33 1077.66 337.71 C 1069.67 344.87 1060.30 350.66 1050.04 353.91 C 1043.86 356.34 1037.49 358.19 1031.15 360.13 C 1024.67 361.73 1018.14 363.35 1012.00 366.01 C 998.93 371.33 984.75 373.28 971.97 379.35 C 959.88 381.42 947.58 379.64 935.42 380.58 C 930.33 381.71 925.12 381.20 919.97 381.28 C 909.64 381.29 899.32 381.26 888.99 381.28 C 885.25 381.23 881.74 383.06 877.98 382.71 C 874.32 382.41 870.65 382.34 867.02 382.91 C 864.05 384.14 861.06 382.33 858.12 381.88 C 853.08 382.36 848.72 379.74 844.18 378.09 C 833.37 374.80 822.69 371.02 812.14 366.99 C 805.79 363.95 799.54 360.46 794.14 355.92 C 788.21 349.81 781.64 344.36 775.88 338.08 C 769.36 330.62 762.42 323.54 756.04 315.97 C 750.92 311.32 746.12 306.18 742.92 299.99 C 738.54 291.89 731.30 285.60 728.01 276.88 C 726.07 271.27 723.26 266.01 721.53 260.32 C 718.78 254.02 716.28 247.53 715.46 240.66 C 712.83 231.10 712.96 221.09 711.03 211.40 C 709.90 206.31 710.53 201.07 710.46 195.91 C 710.18 191.92 712.85 188.68 714.17 185.11 C 716.45 178.81 718.32 172.31 721.29 166.27 C 725.18 159.85 728.23 152.87 733.18 147.15 C 736.96 142.89 740.06 138.10 743.68 133.71 C 749.10 127.80 754.63 121.99 760.53 116.56 C 766.18 110.01 774.18 106.26 780.49 100.46 C 782.37 98.84 784.70 97.89 786.89 96.77 C 787.97 96.28 789.07 95.78 790.18 95.29 C 801.07 89.76 812.13 84.37 823.94 81.05 C 833.56 77.82 843.30 74.95 852.96 71.83 C 858.96 70.84 864.86 69.06 871.00 69.02 C 884.98 67.99 898.95 66.45 913.00 66.61 Z"
     id="path3045" />
  <path
     fill="#000001"
     d=" M 273.98 92.68 C 286.62 91.15 299.28 89.06 312.05 89.30 C 323.44 89.49 334.93 88.74 346.20 90.79 C 353.31 92.15 360.45 93.37 367.57 94.66 C 374.62 95.99 380.89 99.62 387.46 102.32 C 398.47 106.40 408.98 111.71 419.93 115.97 C 429.31 119.40 437.36 125.63 444.34 132.66 C 448.80 137.21 454.29 140.79 457.90 146.14 C 461.24 151.11 464.95 155.84 467.83 161.11 C 474.58 173.01 481.93 184.69 486.68 197.57 C 488.55 202.43 489.85 207.48 491.40 212.45 C 495.11 224.38 495.74 236.94 497.91 249.18 C 498.79 254.07 498.54 259.05 498.45 263.99 C 498.34 268.70 496.73 273.20 496.29 277.88 C 495.72 282.03 495.70 286.31 494.28 290.30 C 493.07 294.41 491.06 298.21 489.40 302.14 C 488.05 304.89 489.24 308.08 488.12 310.88 C 485.32 318.05 482.58 325.26 479.15 332.16 C 473.89 342.39 470.95 353.75 464.42 363.34 C 457.25 376.46 447.58 387.93 439.43 400.42 C 425.69 420.29 408.11 437.21 389.22 452.16 C 381.97 458.60 375.50 466.11 366.98 470.97 C 359.45 475.36 352.63 480.96 344.63 484.53 C 335.23 489.41 325.37 493.47 315.05 495.93 C 306.27 497.82 298.61 502.88 289.82 504.72 C 277.85 508.76 265.01 508.68 252.57 507.63 C 239.71 505.99 226.86 502.15 216.10 494.73 C 211.10 491.36 206.82 487.08 202.49 482.93 C 208.66 487.50 214.86 492.13 222.05 495.02 C 239.64 504.53 260.44 506.95 280.06 504.06 C 287.78 502.24 295.55 500.29 302.75 496.88 C 310.98 493.15 320.06 492.01 328.39 488.56 C 338.50 484.41 348.52 479.76 357.45 473.39 C 363.54 469.21 370.40 466.04 375.60 460.67 C 380.18 456.92 384.13 452.47 388.67 448.67 C 408.18 433.26 426.01 415.42 439.70 394.58 C 446.60 384.21 454.67 374.63 460.66 363.67 C 463.22 359.45 465.91 355.30 467.76 350.71 C 470.54 345.32 471.74 339.20 475.19 334.16 C 476.60 332.09 477.77 329.85 478.11 327.34 C 474.81 331.39 472.65 336.24 469.13 340.14 C 464.61 345.25 460.60 350.88 455.28 355.22 C 451.22 358.88 446.72 362.02 442.83 365.87 C 436.98 371.48 429.83 375.50 422.48 378.78 C 416.90 381.30 412.01 385.11 406.36 387.48 C 401.57 389.56 397.06 392.21 392.17 394.07 C 381.71 398.21 372.63 405.21 362.10 409.16 C 354.94 410.70 348.15 413.58 340.97 415.04 C 335.89 416.04 331.12 418.15 326.04 419.15 C 309.48 422.71 293.18 428.52 276.05 428.31 C 267.52 428.62 259.12 426.61 251.02 424.16 C 247.13 423.30 243.06 423.25 239.32 421.76 C 229.79 418.35 219.41 418.58 209.85 415.29 C 201.75 412.80 194.48 408.33 187.62 403.46 C 174.12 393.47 158.91 385.90 146.17 374.85 C 133.99 365.20 128.00 350.39 120.67 337.15 C 113.64 321.20 109.34 304.20 102.65 288.11 C 99.54 279.03 98.30 269.47 96.56 260.07 C 96.19 251.02 96.11 241.86 97.67 232.89 C 99.59 222.13 101.24 211.12 105.94 201.14 C 108.24 194.72 111.11 188.53 114.63 182.69 C 120.86 170.72 127.77 158.90 136.89 148.88 C 150.44 136.23 166.82 127.05 183.61 119.45 C 200.57 110.57 218.66 103.49 237.59 100.32 C 249.68 97.55 261.88 95.37 273.98 92.68 Z"
     id="path3047" />
  <path
     fill="#ffffff"
     d=" M 278.02 95.33 C 283.65 94.49 289.31 93.82 294.98 93.32 C 305.93 91.74 317.01 92.63 328.02 92.43 C 340.77 92.13 353.17 95.46 365.67 97.46 C 374.16 98.75 381.47 103.57 389.44 106.43 C 395.79 108.57 401.64 111.87 407.89 114.25 C 415.11 117.64 422.97 119.76 429.58 124.35 C 433.56 126.95 437.26 129.99 440.57 133.41 C 446.02 138.97 452.90 143.25 456.91 150.11 C 464.73 160.70 470.67 172.49 477.21 183.87 C 477.69 184.97 478.21 186.06 478.71 187.15 C 482.16 193.82 484.96 200.87 486.79 208.16 L 487.16 208.81 C 490.90 220.26 492.44 232.22 493.93 244.13 C 495.73 253.32 496.16 262.93 494.10 272.11 C 492.43 278.54 493.28 285.46 490.56 291.63 C 488.16 297.76 485.29 303.71 482.81 309.81 C 481.81 313.00 480.47 316.06 479.22 319.16 C 474.72 329.06 467.53 337.33 460.51 345.51 C 456.77 350.13 452.16 353.94 447.59 357.71 C 442.58 361.22 438.74 366.16 433.49 369.35 C 427.36 373.67 420.13 375.97 413.82 379.97 C 407.82 383.86 401.05 386.25 394.78 389.62 C 384.20 393.50 374.85 399.87 364.75 404.74 C 360.53 407.15 355.45 407.00 351.10 409.13 C 344.14 411.37 336.89 412.47 330.02 414.99 C 320.37 417.29 310.72 419.57 301.10 421.98 C 290.62 424.64 279.74 425.52 268.95 425.13 C 263.86 423.88 258.69 422.98 253.50 422.28 L 253.68 421.25 L 252.49 421.61 L 252.55 420.50 C 249.99 420.45 247.44 420.41 244.89 420.31 C 234.69 416.15 223.59 415.65 212.98 413.14 C 210.02 412.01 206.99 411.10 204.11 409.79 C 203.03 409.25 201.95 408.71 200.87 408.21 C 197.39 406.36 194.11 404.18 190.86 401.98 C 174.94 390.16 156.73 381.40 142.49 367.39 C 134.28 357.70 129.02 346.09 123.03 335.01 C 119.81 327.01 116.70 318.94 114.21 310.68 L 113.90 310.09 C 111.17 302.29 108.72 294.37 105.41 286.78 C 102.48 277.79 101.29 268.37 99.51 259.12 C 99.15 248.55 99.44 237.87 101.83 227.53 C 102.84 220.73 104.42 214.00 106.63 207.48 C 108.72 202.81 110.38 197.96 112.42 193.27 C 120.24 178.59 127.84 163.52 139.00 151.03 C 152.67 138.50 169.03 129.33 185.88 121.79 C 186.96 121.27 188.03 120.73 189.11 120.20 C 190.68 119.35 192.23 118.49 193.81 117.66 C 194.94 117.23 196.06 116.75 197.19 116.30 C 200.61 114.48 204.25 113.15 207.88 111.83 C 212.57 110.25 217.19 108.50 221.85 106.85 C 234.17 104.05 246.57 101.68 258.89 98.90 C 265.40 98.37 271.50 95.69 278.02 95.33 Z"
     id="path3049" />
  <path
     fill="#000000"
     d=" M 972.03 148.63 C 977.69 148.49 983.36 148.45 989.02 148.64 C 991.89 149.65 994.89 150.23 997.80 151.15 C 1002.39 152.53 1006.89 154.16 1011.49 155.53 C 1018.05 157.72 1023.49 162.15 1029.41 165.57 C 1032.61 171.16 1037.50 175.50 1040.85 181.00 C 1043.38 186.68 1045.65 192.49 1047.43 198.46 C 1049.54 207.17 1048.45 216.19 1048.76 225.05 C 1049.06 238.03 1043.07 250.17 1035.50 260.35 C 1030.70 264.82 1024.99 269.80 1017.98 269.36 C 1010.65 269.33 1003.32 269.33 995.99 269.36 C 987.38 268.77 978.93 266.86 970.74 264.16 C 966.30 261.96 961.56 260.20 957.55 257.24 C 951.74 252.43 946.58 246.65 943.27 239.82 C 941.52 236.23 939.51 232.78 937.77 229.20 C 937.45 228.15 937.12 227.11 936.79 226.08 C 934.98 217.46 936.01 208.64 935.55 199.91 C 935.06 194.77 937.46 190.05 937.99 185.03 C 939.85 175.74 946.19 168.13 952.50 161.39 C 955.18 158.45 957.30 154.74 961.13 153.15 C 963.68 151.97 966.24 150.82 968.90 149.88 C 969.94 149.48 970.99 149.07 972.03 148.63 Z"
     id="path3051" />
  <path
     fill="#000000"
     d=" M 565.42 192.68 C 570.97 192.08 576.80 190.45 582.23 192.59 C 586.93 194.37 591.72 196.17 595.89 199.03 C 606.81 208.20 616.76 219.01 622.65 232.15 C 626.81 243.38 630.35 254.95 631.45 266.94 C 633.26 277.13 632.57 287.49 632.67 297.79 C 633.00 310.85 631.92 323.97 633.50 336.97 C 633.36 345.70 635.11 354.29 635.96 362.95 C 636.70 371.59 640.49 379.54 642.26 387.96 C 642.64 396.71 642.73 406.28 637.63 413.85 C 635.49 416.93 632.84 419.74 629.76 421.89 C 623.14 424.80 614.93 425.39 608.70 421.18 C 610.40 420.80 612.10 420.44 613.83 420.12 C 600.95 412.42 590.42 401.61 579.45 391.53 C 575.67 387.93 573.07 383.33 569.54 379.51 C 565.76 375.23 561.75 371.10 558.79 366.19 C 555.44 360.72 551.50 355.56 549.12 349.57 C 546.15 342.23 541.45 335.62 539.56 327.86 C 538.21 323.51 536.94 319.12 536.23 314.62 C 533.18 302.63 529.09 290.82 527.69 278.49 C 527.39 269.27 526.78 259.86 529.18 250.85 C 532.08 238.58 535.18 226.20 540.67 214.79 C 543.19 209.76 546.78 205.39 549.72 200.61 C 553.08 195.33 559.53 193.36 565.42 192.68 Z"
     id="path3053" />
  <path
     fill="#000000"
     d=" M 220.36 206.70 C 233.23 199.83 248.59 197.43 262.88 200.41 C 278.25 205.16 288.03 219.33 295.30 232.83 C 303.91 250.56 309.65 270.31 308.35 290.17 C 305.85 296.87 302.47 303.29 297.80 308.74 C 291.31 316.91 281.79 322.01 272.02 325.20 C 260.55 327.28 248.57 327.30 237.14 324.93 C 234.07 324.32 231.04 323.45 227.90 323.24 C 225.61 322.24 223.27 321.31 221.20 319.90 C 212.48 313.69 204.18 306.93 196.03 299.99 C 191.95 296.12 187.76 292.09 185.60 286.77 C 183.82 283.47 183.46 279.72 182.78 276.10 C 182.62 270.72 182.61 265.32 182.79 259.94 C 184.49 247.34 190.41 235.76 197.68 225.49 C 203.54 217.49 211.30 210.82 220.36 206.70 Z"
     id="path3055" />
  <path
     fill="#ead1b9"
     d=" M 632.67 297.79 C 639.09 297.61 645.42 295.40 651.86 296.50 C 658.36 297.62 663.94 301.34 669.58 304.53 C 679.49 309.66 689.31 315.12 698.34 321.72 C 703.06 325.67 707.44 330.01 712.43 333.65 C 720.08 340.60 727.79 347.54 734.54 355.40 C 743.56 364.35 752.32 373.57 761.71 382.15 C 765.19 385.72 768.58 389.41 771.64 393.35 C 776.36 399.45 779.30 406.74 784.37 412.59 C 790.24 419.37 794.27 427.45 798.92 435.05 C 804.80 444.78 809.90 455.02 813.52 465.81 C 815.05 470.22 817.40 474.28 819.55 478.42 C 823.06 485.05 825.66 492.11 829.25 498.71 C 833.62 507.73 837.51 517.01 840.62 526.54 C 843.15 534.24 847.58 541.18 849.75 549.02 C 852.19 557.69 855.64 566.04 858.19 574.68 C 861.03 585.11 865.34 595.07 868.25 605.49 C 873.63 623.92 879.57 642.24 882.99 661.17 C 884.98 672.85 888.72 684.12 891.28 695.67 C 897.41 715.69 901.26 736.37 903.40 757.19 C 905.12 768.41 905.01 779.88 907.47 791.00 L 372.37 791.00 C 371.78 781.63 370.78 772.29 369.84 762.95 C 368.07 744.98 367.73 726.92 366.67 708.91 C 366.31 686.93 366.05 664.92 367.37 642.96 C 367.47 635.37 368.02 627.80 368.96 620.26 C 371.83 595.79 372.52 570.99 377.95 546.89 C 380.16 534.24 383.99 521.92 388.91 510.08 C 391.78 503.21 393.89 496.03 397.29 489.39 C 404.90 474.58 412.81 459.89 419.33 444.56 C 422.03 436.57 428.39 430.72 432.38 423.45 C 436.66 415.26 441.21 407.18 446.47 399.57 C 450.24 394.05 455.88 390.24 460.17 385.17 C 463.42 381.37 466.06 377.10 469.26 373.26 C 479.83 361.13 493.07 351.76 504.01 340.01 C 508.99 334.57 515.54 330.90 520.52 325.46 C 524.93 320.77 530.42 317.32 536.23 314.62 C 536.94 319.12 538.21 323.51 539.56 327.86 C 541.45 335.62 546.15 342.23 549.12 349.57 C 551.50 355.56 555.44 360.72 558.79 366.19 C 561.75 371.10 565.76 375.23 569.54 379.51 C 573.07 383.33 575.67 387.93 579.45 391.53 C 590.42 401.61 600.95 412.42 613.83 420.12 C 612.10 420.44 610.40 420.80 608.70 421.18 C 614.93 425.39 623.14 424.80 629.76 421.89 C 632.84 419.74 635.49 416.93 637.63 413.85 C 642.73 406.28 642.64 396.71 642.26 387.96 C 640.49 379.54 636.70 371.59 635.96 362.95 C 635.11 354.29 633.36 345.70 633.50 336.97 C 631.92 323.97 633.00 310.85 632.67 297.79 Z"
     id="path3057" />
  <path
     fill="#000000"
     d=" M 642.37 337.76 C 644.96 339.00 647.78 339.99 649.94 341.97 C 656.15 349.04 665.41 352.06 673.38 356.60 C 683.22 364.52 693.66 371.66 703.47 379.62 C 709.70 386.72 716.25 393.68 720.75 402.10 C 722.64 406.07 726.34 408.89 727.84 413.09 C 729.57 417.47 731.76 421.64 734.33 425.60 C 739.19 433.31 743.18 441.52 747.40 449.58 C 750.83 453.52 752.93 458.30 754.85 463.11 C 757.68 468.53 758.36 474.75 761.13 480.21 C 762.36 483.49 764.09 486.55 765.34 489.82 C 768.44 501.75 773.82 512.93 776.29 525.04 C 780.25 534.51 779.81 544.97 782.15 554.83 C 784.73 563.20 788.25 571.28 790.23 579.84 C 791.77 586.94 793.74 593.95 795.30 601.05 C 795.91 608.41 798.45 615.39 799.81 622.63 C 797.89 623.27 797.06 621.03 797.07 619.44 C 797.17 621.41 797.20 623.40 797.03 625.38 C 795.82 622.32 795.74 619.03 795.10 615.85 C 793.41 610.25 790.44 604.95 790.17 599.00 C 788.53 588.58 786.36 578.19 782.63 568.30 C 780.55 563.90 777.90 559.76 776.33 555.13 C 772.23 551.41 769.02 546.68 764.10 543.91 C 756.23 539.30 748.83 531.71 739.03 532.46 C 731.26 532.42 723.21 532.13 715.86 535.06 C 710.44 537.27 704.91 539.58 700.56 543.61 C 695.69 546.66 692.07 551.17 687.80 554.94 C 681.87 560.70 676.94 567.39 672.01 573.99 C 669.10 579.00 663.92 581.89 659.76 585.70 C 654.59 590.60 648.23 593.97 641.90 597.09 C 637.35 597.90 632.64 597.21 628.03 597.47 C 621.56 597.89 615.78 594.48 610.03 592.05 C 599.13 588.74 588.55 584.47 577.63 581.23 C 571.02 578.31 563.95 576.80 557.04 574.82 C 549.00 573.87 541.03 572.32 533.11 570.70 C 527.06 570.47 521.01 570.66 514.96 570.60 C 504.28 571.22 495.09 577.12 485.71 581.64 C 480.16 583.99 474.54 586.77 470.69 591.58 C 466.23 597.34 461.40 603.04 458.75 609.93 C 457.54 613.00 456.55 616.16 455.25 619.21 C 453.27 623.83 452.62 628.89 450.78 633.57 C 450.23 628.22 450.17 622.51 452.59 617.58 C 454.67 612.92 455.86 607.89 458.35 603.40 C 460.18 599.38 463.19 596.03 464.99 591.99 C 466.28 589.33 467.09 586.35 469.07 584.09 C 474.46 578.33 478.02 571.17 483.14 565.20 C 489.88 557.22 495.80 548.59 502.85 540.88 C 505.98 537.62 508.07 533.50 511.47 530.48 C 518.54 523.55 524.87 515.91 532.08 509.12 C 536.64 504.75 540.62 499.49 546.45 496.71 C 550.84 494.64 555.24 492.30 560.09 491.51 C 565.00 491.36 569.95 491.26 574.87 491.57 C 580.96 493.30 586.72 496.12 592.93 497.48 C 595.33 498.03 597.70 498.76 600.05 499.54 C 607.05 501.91 614.59 502.08 621.90 501.59 C 628.40 499.86 634.99 498.12 641.00 495.02 C 647.52 491.80 653.55 487.72 659.69 483.85 C 668.25 478.69 677.63 475.11 687.00 471.72 C 697.92 472.20 709.30 470.16 719.76 474.21 C 727.49 476.90 735.08 480.28 741.46 485.49 C 749.42 492.64 756.33 500.90 762.11 509.91 C 769.02 518.03 771.03 528.85 776.52 537.79 C 774.95 529.62 771.95 521.82 770.12 513.71 C 767.15 505.87 764.43 497.94 762.07 489.90 C 759.40 484.08 756.68 478.25 754.88 472.09 C 754.32 469.56 753.40 467.13 752.27 464.81 C 750.53 461.22 749.47 457.24 746.94 454.09 C 745.77 452.63 744.59 451.18 743.78 449.50 C 739.58 440.53 734.71 431.89 729.47 423.49 C 726.35 418.74 725.32 412.84 721.40 408.59 C 717.21 402.76 714.12 396.13 709.19 390.84 C 704.84 385.82 700.65 380.56 695.01 376.90 C 687.20 370.76 679.03 365.10 671.28 358.89 C 664.92 355.64 658.40 352.61 652.48 348.59 C 649.74 346.27 647.37 343.52 644.21 341.75 C 642.46 341.14 642.52 339.28 642.37 337.76 Z"
     id="path3059" />
  <path
     fill="#030302"
     d=" M 537.03 354.67 C 538.09 354.46 539.16 354.26 540.23 354.08 C 539.75 355.75 539.09 357.39 537.96 358.74 C 531.66 366.22 525.60 373.91 519.44 381.51 C 515.90 385.39 511.13 388.02 508.19 392.48 C 504.18 397.07 499.46 401.13 496.72 406.71 C 493.54 413.01 488.71 418.36 486.14 424.98 C 484.58 428.68 482.09 431.91 480.75 435.71 C 478.85 440.55 478.97 445.86 477.49 450.81 C 474.69 458.65 472.02 466.55 469.64 474.53 C 467.86 483.38 464.54 491.94 464.07 501.03 C 463.10 508.38 460.50 515.51 461.10 523.02 C 460.47 531.14 458.16 539.01 457.02 547.06 C 456.51 551.99 457.31 557.06 455.93 561.91 C 454.40 567.56 453.38 573.33 452.36 579.09 C 451.04 583.95 449.85 588.90 449.65 593.96 C 449.75 599.76 447.16 605.20 447.25 611.01 C 446.50 620.78 445.96 630.65 446.96 640.42 C 448.99 650.46 450.28 660.62 452.12 670.69 C 454.56 688.45 457.79 706.12 459.21 724.01 C 459.47 729.90 461.53 735.47 462.48 741.25 C 459.49 732.09 457.32 722.63 455.99 713.09 C 451.34 691.15 449.09 668.81 444.98 646.77 C 442.25 634.35 443.37 621.49 444.33 608.93 C 444.55 603.86 446.51 599.05 446.52 593.97 C 446.70 586.86 449.24 580.12 450.25 573.13 C 451.20 566.70 453.83 560.54 453.69 553.97 C 453.04 542.79 458.01 532.18 457.86 521.02 C 457.66 513.84 460.42 507.04 460.93 499.92 C 461.76 490.88 464.94 482.34 466.71 473.50 C 469.20 464.94 472.35 456.59 474.99 448.09 C 476.12 441.94 476.66 435.48 480.02 430.02 C 483.03 425.45 484.42 420.04 487.62 415.59 C 490.39 411.56 492.88 407.37 495.25 403.09 C 498.13 397.89 503.09 394.38 506.51 389.60 C 509.95 384.93 515.39 382.29 518.77 377.57 C 524.64 369.77 531.24 362.53 537.03 354.67 Z"
     id="path3061" />
  <path
     fill="#ffffff"
     d=" M 686.46 475.44 C 689.28 474.88 692.14 474.74 695.02 474.87 C 701.75 474.65 708.49 474.81 715.16 475.79 C 723.88 479.19 733.45 481.98 740.15 488.84 C 740.31 494.20 740.37 499.57 740.31 504.94 C 739.39 506.85 739.46 508.99 739.33 511.06 C 735.08 514.07 729.77 514.29 725.00 516.01 C 721.35 516.18 717.72 516.71 714.22 517.73 C 710.58 518.96 706.69 518.49 702.93 518.57 C 698.88 515.72 696.15 511.66 693.64 507.50 C 692.26 507.27 690.88 507.07 689.51 506.92 C 688.56 513.94 691.65 521.07 689.30 527.97 C 683.70 531.14 677.81 533.76 672.34 537.14 C 664.51 538.49 657.38 542.07 649.94 544.65 C 647.48 546.05 644.17 547.32 641.91 544.86 C 637.46 542.32 636.78 535.65 631.76 534.24 C 631.08 537.87 630.57 541.55 630.23 545.24 C 629.85 546.16 629.48 547.10 629.11 548.04 C 628.65 549.48 628.34 550.96 628.11 552.47 C 618.43 557.01 607.36 555.44 596.99 555.77 C 590.01 556.05 583.07 555.54 576.11 555.17 C 572.19 553.42 568.11 551.99 563.89 551.20 C 563.60 550.98 563.03 550.54 562.75 550.32 C 559.77 545.95 557.54 541.12 554.49 536.82 C 554.23 536.34 553.98 535.87 553.74 535.41 C 552.58 539.20 550.55 542.62 548.22 545.80 C 544.48 545.66 540.65 545.97 537.01 544.95 C 532.99 544.90 529.43 542.94 525.56 542.20 C 520.60 538.53 519.93 532.17 519.55 526.48 C 524.21 522.16 528.03 517.04 532.85 512.89 C 536.41 509.41 539.91 505.86 543.27 502.19 C 547.30 502.39 548.26 507.20 548.58 510.44 C 549.05 510.42 550.00 510.38 550.48 510.36 C 550.48 506.48 550.42 502.59 549.50 498.81 C 551.59 497.77 553.70 496.75 555.83 495.79 C 561.65 493.80 567.87 494.59 573.89 494.65 C 578.65 495.88 583.18 497.90 587.85 499.41 C 593.65 500.62 599.23 502.59 604.92 504.19 C 608.93 504.43 612.92 505.02 616.96 504.83 C 618.70 504.87 620.69 504.45 622.07 505.83 C 623.62 507.96 624.43 510.50 625.57 512.86 C 626.03 512.82 626.95 512.73 627.41 512.69 C 627.24 509.36 626.55 505.70 628.82 502.90 C 637.37 500.63 645.41 496.68 652.81 491.86 C 658.28 488.57 663.45 484.71 669.38 482.24 C 673.71 480.60 677.75 476.97 682.67 478.86 C 682.48 478.98 682.09 479.21 681.89 479.33 C 684.52 481.58 684.40 486.38 688.15 487.24 C 686.95 483.41 685.54 479.52 686.46 475.44 Z"
     id="path3063" />
  <path
     fill="#c5442e"
     d=" M 682.67 478.86 C 681.32 476.01 684.08 475.64 686.12 474.98 C 685.93 476.54 685.73 478.11 685.55 479.68 C 684.64 479.59 682.81 479.42 681.89 479.33 C 682.09 479.21 682.48 478.98 682.67 478.86 Z"
     id="path3065" />
  <path
     fill="#a54535"
     d=" M 545.26 500.03 C 546.58 499.50 547.91 498.98 549.24 498.47 C 549.34 500.33 549.42 502.19 549.48 504.06 C 547.30 503.60 546.26 501.77 545.26 500.03 Z"
     id="path3067" />
  <path
     fill="#8d4033"
     d=" M 623.24 504.08 C 624.25 503.60 626.27 502.65 627.27 502.17 C 627.11 504.08 626.95 506.00 626.75 507.92 C 625.75 507.65 624.75 507.39 623.77 507.14 C 623.64 506.37 623.37 504.84 623.24 504.08 Z"
     id="path3069" />
  <path
     fill="#000000"
     d=" M 734.05 564.15 C 737.79 561.21 741.92 558.45 746.58 557.27 C 746.39 561.43 741.84 562.19 739.12 564.24 C 732.07 568.61 730.00 577.18 725.46 583.61 C 730.94 582.98 735.84 585.86 740.22 588.77 C 742.47 590.33 743.74 592.86 745.13 595.16 C 740.87 593.62 737.62 590.25 733.54 588.36 C 730.64 586.65 727.21 586.64 723.96 586.49 C 722.64 588.72 721.27 590.93 720.26 593.32 C 717.83 599.61 714.56 605.53 711.25 611.40 C 707.26 616.60 704.23 622.68 698.99 626.81 C 696.04 629.19 693.69 632.29 690.40 634.25 C 683.33 638.73 676.39 643.93 668.11 645.90 C 660.32 648.39 652.27 650.76 644.00 650.26 C 635.61 650.67 627.33 649.31 619.04 648.25 C 609.24 646.11 600.04 642.03 590.77 638.33 C 582.85 634.22 574.74 630.20 567.84 624.49 C 561.08 621.36 555.59 615.74 548.15 614.14 C 545.45 615.59 542.95 617.57 541.25 620.16 C 538.83 623.84 535.82 627.07 533.07 630.50 C 534.98 623.76 538.28 616.79 544.42 612.95 C 544.48 612.67 544.60 612.13 544.66 611.86 C 536.61 609.50 529.00 605.74 520.83 603.79 C 513.80 603.75 506.77 603.52 499.75 603.05 C 501.98 601.86 504.30 600.36 506.96 600.66 C 512.03 600.78 517.12 600.42 522.18 600.86 C 528.62 602.71 534.90 605.11 541.16 607.49 C 546.00 608.77 550.19 611.61 554.89 613.26 C 557.86 614.36 560.19 616.60 562.90 618.17 C 565.92 620.16 569.46 621.34 572.12 623.87 C 575.15 626.77 579.13 628.26 582.64 630.46 C 586.83 633.06 591.23 635.34 595.85 637.10 C 602.23 639.31 608.31 642.39 614.91 643.97 C 626.30 647.37 638.30 646.79 650.05 646.80 C 655.91 646.65 661.52 644.74 667.07 643.03 C 674.35 641.24 680.64 636.92 686.82 632.87 C 691.83 630.05 695.50 625.52 699.88 621.88 C 704.77 615.65 709.36 609.11 712.86 601.98 C 716.01 596.57 717.63 590.43 721.14 585.21 C 725.54 578.25 728.39 570.24 734.05 564.15 Z"
     id="path3071" />
  <path
     fill="#c7432c"
     d=" M 648.59 564.69 C 650.81 563.08 653.03 561.03 655.89 560.77 C 661.25 560.14 666.68 559.98 672.07 560.28 C 673.86 560.36 674.87 562.16 676.21 563.15 C 671.58 568.86 668.14 575.72 661.90 579.91 C 655.31 585.63 648.38 591.39 639.99 594.19 C 635.65 594.51 631.29 594.31 626.94 594.33 C 619.41 594.29 613.30 589.20 606.15 587.60 C 595.68 583.90 585.17 580.37 574.63 576.92 C 576.07 573.07 580.10 571.37 583.38 569.37 C 589.46 566.53 596.52 565.68 603.08 567.24 C 611.70 569.21 619.93 573.48 628.96 573.29 C 631.97 573.18 635.32 573.80 637.93 571.90 C 641.55 569.59 645.23 567.38 648.59 564.69 Z"
     id="path3073" />
  <path
     fill="#35302a"
     d=" M 799.19 632.97 C 798.78 629.62 797.98 625.93 799.95 622.90 C 800.34 630.36 801.81 637.85 801.17 645.32 C 800.80 646.18 800.05 647.92 799.67 648.78 C 799.30 643.52 799.94 638.21 799.19 632.97 Z"
     id="path3075" />
  <path
     fill="#010101"
     d=" M 799.67 648.78 C 800.05 647.92 800.80 646.18 801.17 645.32 C 801.63 654.79 800.95 664.32 802.68 673.70 C 802.08 674.44 801.50 675.18 800.92 675.93 C 799.94 666.91 798.70 657.86 799.67 648.78 Z"
     id="path3077" />
  <path
     fill="#322d28"
     d=" M 801.08 677.24 C 801.75 676.56 802.43 675.90 803.12 675.24 C 803.71 684.85 805.11 694.39 805.64 704.01 C 806.01 710.23 807.71 716.31 807.73 722.55 C 805.86 715.51 805.67 708.18 804.28 701.05 C 802.43 693.24 801.87 685.20 801.08 677.24 Z"
     id="path3079" />
  <path
     fill="#010101"
     d=" M 746.30 699.44 C 749.30 694.32 752.78 689.52 755.74 684.38 C 753.37 690.08 750.85 695.73 748.49 701.44 C 743.63 708.14 738.54 714.75 732.58 720.53 C 725.48 728.27 714.93 731.03 705.41 734.57 C 698.19 738.04 690.13 738.92 682.53 741.25 C 676.20 741.32 670.38 744.57 664.02 744.19 C 655.65 744.20 647.28 744.22 638.94 743.53 C 631.89 742.41 624.95 740.66 617.88 739.68 C 609.35 739.34 600.96 737.60 592.78 735.24 C 588.22 733.09 583.72 730.83 579.01 729.01 C 571.44 724.97 564.33 719.86 558.56 713.46 C 562.77 716.49 566.18 720.54 570.73 723.13 C 574.55 724.51 577.81 727.04 581.63 728.45 C 585.42 729.88 589.11 731.58 592.80 733.26 C 600.76 735.43 608.89 736.85 617.12 737.51 C 625.12 738.48 633.00 740.32 640.97 741.37 C 648.62 741.12 656.28 741.15 663.94 741.20 C 669.83 741.56 675.14 738.25 681.02 738.32 C 687.05 736.94 693.03 735.28 699.06 733.87 C 708.23 729.74 718.45 727.74 726.70 721.72 C 734.39 715.40 740.27 707.27 746.30 699.44 Z"
     id="path3081" />
  <path
     fill="#030302"
     d=" M 730.92 722.25 C 736.67 723.18 743.16 724.77 745.99 730.48 C 740.96 729.47 736.78 726.14 731.70 725.16 C 731.51 724.43 731.12 722.98 730.92 722.25 Z"
     id="path3083" />
  <path
     fill="#030302"
     d=" M 618.58 749.95 C 622.96 747.16 627.74 745.03 632.95 744.47 C 627.80 746.55 623.87 750.99 618.38 752.28 C 618.43 751.70 618.53 750.53 618.58 749.95 Z"
     id="path3085" />
</svg>
